<svg xmlns="http://www.w3.org/2000/svg" viewBox="0 0 150 42" role="img" aria-labelledby="title">
  <title id="title">Mastercard</title>
  <rect width="150" height="42" fill="none"/>
  <circle cx="56" cy="21" r="15" fill="#EA001B"/>
  <circle cx="75" cy="21" r="15" fill="#F79E1B"/>
  <path fill="#FF5F00" d="M65.5 9.3a15 15 0 0 1 0 23.4 15 15 0 0 1 0-23.4Z"/>
  <path fill="#FFFFFF" d="M99.5 15.1h3.1l1.6 9.2 1.6-9.2h3.1l-2.7 13.1h-3.9l-2.8-13.1Zm12.7 0h3.2l2.6 13.1h-2.9l-.4-2.4h-2.8l-.4 2.4h-2.8l3.5-13.1Zm2.1 8.5-.9-5.2-.9 5.2h1.8Zm4.8-8.5h4.9c2.8 0 4.2 1.3 4.2 3.8 0 1.7-.7 2.9-2.1 3.5l2.4 5.8h-3.2l-2-5.1h-1.1v5.1h-3.1V15.1Zm4.5 5.7c1 0 1.5-.5 1.5-1.6 0-1-.5-1.5-1.5-1.5h-1.4v3.1h1.4Zm6.1-5.7h8v2.7h-4.9v2.4h4.4v2.6h-4.4v2.7h5v2.7h-8.1V15.1Z"/>
</svg>
