<svg xmlns="http://www.w3.org/2000/svg" viewBox="0 0 128 42" role="img" aria-labelledby="title">
  <title id="title">RuPay</title>
  <rect width="128" height="42" fill="none"/>
  <path fill="#2D358E" d="M7.2 11.2h17.3c5.4 0 8.3 2.4 7.7 6.4-.4 2.8-2.3 4.8-5.4 5.8l4.4 7.4h-8.7l-3.6-6.6h-3.8l-1.1 6.6H6.1l3.6-19.6H7.2Zm13.2 8.5c2.1 0 3.4-.8 3.6-2.2.2-1.3-.8-2-2.9-2h-4.3l-.8 4.2h4.4Zm17.6-8.5h7.6l-2.2 11.7c-.5 2.4.4 3.6 2.8 3.6 2.4 0 3.8-1.2 4.2-3.6l2.2-11.7h7.6L58 23.7c-.9 5-5.3 7.9-12.6 7.9-7.4 0-10.7-2.9-9.8-7.9L38 11.2Zm28.1 0h14.4c5.4 0 8.4 2.7 7.6 7.2-.8 4.4-4.8 7.2-10.2 7.2H72l-1 5.2h-7.7l3.8-19.6h-1Zm11.3 9.9c1.9 0 3-.9 3.3-2.5.2-1.5-.7-2.3-2.5-2.3h-4.3l-.9 4.8h4.4Zm17.4-9.9h8.2l7.1 19.6h-8l-1-3.3h-8.5l-2.3 3.3h-8.1l14.6-19.6Zm4.8 11.5-1.6-5.8-3.7 5.8h5.3Z"/>
  <path fill="#F58220" d="m105.3 8.4 14.9 12.6-20 12.6 5.1-25.2Z"/>
  <path fill="#0B8F43" d="m112.1 8.4 14.9 12.6-20 12.6 5.1-25.2Z"/>
</svg>
